<svg width="23" height="23" viewBox="0 0 23 23" fill="none" xmlns="http://www.w3.org/2000/svg">
<path d="M12.4321 9.55713L19.103 2.875H14.375V1.4375H21.5625V8.625H20.125V3.89697L13.4429 10.5679L12.4321 9.55713ZM17.1826 13.2407C17.4746 13.2407 17.7591 13.2969 18.0361 13.4092C18.3132 13.5215 18.5565 13.6825 18.7661 13.8921C18.9233 14.0493 19.0993 14.214 19.2939 14.3862C19.4886 14.5584 19.6945 14.7419 19.9116 14.9365C20.1287 15.1312 20.3309 15.3333 20.5181 15.543C20.7052 15.7526 20.8812 15.966 21.0459 16.1831C21.2106 16.4002 21.3341 16.6323 21.4165 16.8794C21.4989 17.1265 21.5475 17.3735 21.5625 17.6206C21.5625 17.9126 21.5063 18.1971 21.394 18.4741C21.2817 18.7511 21.1208 18.9945 20.9111 19.2041C20.5293 19.5859 20.1849 19.9229 19.8779 20.2148C19.571 20.5068 19.2528 20.7539 18.9233 20.9561C18.5939 21.1582 18.2233 21.3079 17.8115 21.4053C17.3997 21.5026 16.9168 21.555 16.3628 21.5625C15.5467 21.5625 14.7082 21.4352 13.8472 21.1807C12.9862 20.9261 12.1289 20.5742 11.2754 20.125C10.4219 19.6758 9.58708 19.1405 8.771 18.519C7.95492 17.8976 7.18376 17.2201 6.45752 16.4863C5.73128 15.7526 5.05745 14.9777 4.43604 14.1616C3.81462 13.3455 3.28678 12.5145 2.85254 11.6685C2.41829 10.8224 2.07389 9.97266 1.81934 9.11914C1.56478 8.26562 1.4375 7.44206 1.4375 6.64844C1.4375 6.07943 1.48617 5.59277 1.5835 5.18848C1.68083 4.78418 1.83057 4.41732 2.03271 4.08789C2.23486 3.75846 2.48193 3.44027 2.77393 3.1333C3.06592 2.82633 3.40658 2.47819 3.7959 2.08887C4.00553 1.87923 4.24886 1.71826 4.52588 1.60596C4.8029 1.49365 5.0874 1.4375 5.37939 1.4375C5.75374 1.4375 6.11312 1.53857 6.45752 1.74072C6.80192 1.94287 7.13509 2.18994 7.45703 2.48193C7.77897 2.77393 8.07471 3.08089 8.34424 3.40283C8.61377 3.72477 8.86833 4.00179 9.10791 4.23389C9.31755 4.44352 9.47852 4.68685 9.59082 4.96387C9.70312 5.24089 9.75928 5.52539 9.75928 5.81738C9.75928 6.10938 9.71061 6.37142 9.61328 6.60352C9.51595 6.83561 9.39616 7.0415 9.25391 7.22119C9.11165 7.40088 8.95443 7.56934 8.78223 7.72656C8.61003 7.88379 8.4528 8.03353 8.31055 8.17578C8.16829 8.31803 8.04476 8.45654 7.93994 8.59131C7.83512 8.72607 7.78646 8.87581 7.79395 9.04053C7.79395 9.13037 7.86133 9.27262 7.99609 9.46729C8.13086 9.66195 8.31803 9.89404 8.55762 10.1636C8.7972 10.4331 9.06299 10.7214 9.35498 11.0283C9.64697 11.3353 9.96143 11.6535 10.2983 11.9829C10.6353 12.3123 10.9609 12.6305 11.2754 12.9375C11.5898 13.2445 11.8931 13.5365 12.1851 13.8135C12.4771 14.0905 12.7241 14.3263 12.9263 14.521C13.1284 14.7157 13.2856 14.8654 13.3979 14.9702C13.5552 15.1274 13.7424 15.2061 13.9595 15.2061C14.1167 15.2061 14.2627 15.1574 14.3975 15.0601C14.5322 14.9627 14.6707 14.8429 14.813 14.7007C14.9552 14.5584 15.1012 14.4012 15.251 14.229C15.4007 14.0568 15.5729 13.8996 15.7676 13.7573C15.9622 13.6151 16.1681 13.4915 16.3853 13.3867C16.6024 13.2819 16.8682 13.2332 17.1826 13.2407ZM16.3628 20.125C16.8195 20.125 17.2013 20.0838 17.5083 20.0015C17.8153 19.9191 18.096 19.7918 18.3506 19.6196C18.6051 19.4474 18.8447 19.2453 19.0693 19.0132C19.2939 18.7811 19.5672 18.5078 19.8892 18.1934C20.0464 18.0361 20.125 17.849 20.125 17.6318C20.125 17.5345 20.0651 17.396 19.9453 17.2163C19.8255 17.0366 19.6758 16.8345 19.4961 16.6099C19.3164 16.3853 19.1105 16.1606 18.8784 15.936C18.6463 15.7114 18.4217 15.5055 18.2046 15.3184C17.9875 15.1312 17.7891 14.9777 17.6094 14.8579C17.4297 14.7381 17.2874 14.6782 17.1826 14.6782C17.0254 14.6782 16.8757 14.7269 16.7334 14.8242C16.5911 14.9215 16.4526 15.0413 16.3179 15.1836C16.1831 15.3258 16.0371 15.4831 15.8799 15.6553C15.7227 15.8275 15.5505 15.9847 15.3633 16.127C15.1761 16.2692 14.9702 16.3927 14.7456 16.4976C14.521 16.6024 14.259 16.651 13.9595 16.6436C13.66 16.6436 13.3755 16.5874 13.106 16.4751C12.8364 16.3628 12.5931 16.1981 12.376 15.981L7.01904 10.624C6.80941 10.4144 6.64844 10.1748 6.53613 9.90527C6.42383 9.63574 6.36393 9.34749 6.35645 9.04053C6.35645 8.74854 6.40511 8.49023 6.50244 8.26562C6.59977 8.04102 6.71956 7.83138 6.86182 7.63672C7.00407 7.44206 7.1613 7.2736 7.3335 7.13135C7.5057 6.9891 7.66292 6.83936 7.80518 6.68213C7.94743 6.5249 8.07096 6.38639 8.17578 6.2666C8.2806 6.14681 8.32926 5.99707 8.32178 5.81738C8.32178 5.72005 8.26188 5.58154 8.14209 5.40186C8.0223 5.22217 7.87256 5.02376 7.69287 4.80664C7.51318 4.58952 7.30729 4.36491 7.0752 4.13281C6.8431 3.90072 6.61849 3.69482 6.40137 3.51514C6.18424 3.33545 5.9821 3.18197 5.79492 3.05469C5.60775 2.92741 5.46924 2.86751 5.37939 2.875C5.15479 2.875 4.96387 2.95361 4.80664 3.11084C4.49967 3.41781 4.2264 3.68734 3.98682 3.91943C3.74723 4.15153 3.54508 4.39111 3.38037 4.63818C3.21566 4.88525 3.09212 5.16602 3.00977 5.48047C2.92741 5.79492 2.88249 6.17301 2.875 6.61475C2.875 7.3335 2.99105 8.07471 3.22314 8.83838C3.45524 9.60205 3.77718 10.3732 4.18896 11.1519C4.60075 11.9305 5.09489 12.6867 5.67139 13.4204C6.24788 14.1541 6.86556 14.8542 7.52441 15.5205C8.18327 16.1868 8.88704 16.8008 9.63574 17.3623C10.3844 17.9238 11.1406 18.4105 11.9043 18.8223C12.668 19.234 13.4279 19.5522 14.1841 19.7769C14.9403 20.0015 15.6665 20.1175 16.3628 20.125Z" fill="#21B509"/>
</svg>
