<svg width="27" height="20" viewBox="0 0 27 20" fill="none" xmlns="http://www.w3.org/2000/svg">
<path d="M1.81775 20.0003H6.05918V9.69966L0 5.15527V18.1825C0 19.1868 0.813445 20.0003 1.81775 20.0003Z" fill="#4285F4"/>
<path d="M20.6013 20.0003H24.8427C25.847 20.0003 26.6604 19.1868 26.6604 18.1825V5.15527L20.6013 9.69966V20.0003Z" fill="#34A853"/>
<path d="M20.6013 1.82265V9.69958L26.6604 5.1552V2.73153C26.6604 0.485088 24.0959 -0.797943 22.2978 0.550224L20.6013 1.82265Z" fill="#FBBC04"/>
<path fill-rule="evenodd" clip-rule="evenodd" d="M6.05908 9.69969V1.82275L13.3301 7.27601L20.6011 1.82275V9.69969L13.3301 15.1529L6.05908 9.69969Z" fill="#EA4335"/>
<path d="M0 2.73153V5.1552L6.05918 9.69958V1.82265L4.36261 0.550224C2.56455 -0.797943 0 0.485088 0 2.73153Z" fill="#C5221F"/>
</svg>
