<svg width="284" height="78" viewBox="0 0 284 78" fill="none" xmlns="http://www.w3.org/2000/svg">
<g clip-path="url(#clip0_112:14)">
<path d="M154.3 62V42H148V62H154.3Z" fill="black"/>
<path d="M154.93 62V47.625H156.82C163.12 50.125 162.49 59.5 156.82 62H154.93Z" fill="black"/>
<path d="M165.64 47.625C169.42 47.625 169.42 53.25 165.64 53.25C161.86 53.25 161.86 47.625 165.64 47.625Z" fill="black"/>
<path d="M168.16 62V53.875H166.27C161.283 53.875 161.23 62 166.27 62H168.16Z" fill="black"/>
<path d="M171.94 47.625H167.845C168.919 48.1639 169.221 48.6432 169.42 49.8125V62H175.09V52.1721C175.09 49.5 173.83 47.625 171.94 47.625Z" fill="black"/>
<path d="M182.65 47.625H176.98V62H182.65V47.625Z" fill="black"/>
<path d="M183.91 47.625H185.8C187.69 47.625 189.58 48.875 189.58 50.75V62L198.4 47.625H204.7V48.25L195.88 62H189.58H183.91V47.625Z" fill="black"/>
<path d="M191.47 47.625V55.75L196.51 47.625H191.47Z" fill="black"/>
<path d="M203.44 62V53.25L197.77 62H203.44Z" fill="black"/>
<path d="M205.33 62V47.625H211V62H205.33Z" fill="black"/>
<path d="M208.165 42C205.015 42 205.015 47 208.165 47C211.315 47 211.315 42 208.165 42Z" fill="black"/>
<path d="M146 58.7391C146 60.0435 144 62 142 62H140V47H146V58.7391Z" fill="black"/>
<path d="M133 58.413C133 60.3696 134.944 62 136.333 62H138V47H133V58.413Z" fill="black"/>
<path d="M85.6283 0H73.3508L73 62H131.23V58.4972H85.6283V0Z" fill="black"/>
<path d="M8.80469 74.6299C8.77279 75.3226 8.58594 75.9355 8.24414 76.4688C7.90234 76.9974 7.42155 77.4076 6.80176 77.6992C6.18652 77.9909 5.48242 78.1367 4.68945 78.1367C3.38151 78.1367 2.35156 77.7106 1.59961 76.8584C0.847656 76.0062 0.47168 74.8031 0.47168 73.249V72.7568C0.47168 71.7816 0.640299 70.9294 0.977539 70.2002C1.31934 69.4665 1.80924 68.9014 2.44727 68.5049C3.08529 68.1038 3.82357 67.9033 4.66211 67.9033C5.86979 67.9033 6.84049 68.2223 7.57422 68.8604C8.30794 69.4938 8.72493 70.3688 8.8252 71.4854H6.43262C6.41439 70.8792 6.26172 70.444 5.97461 70.1797C5.6875 69.9154 5.25 69.7832 4.66211 69.7832C4.0651 69.7832 3.6276 70.0065 3.34961 70.4531C3.07161 70.8997 2.92578 71.613 2.91211 72.5928V73.2969C2.91211 74.3587 3.04427 75.1175 3.30859 75.5732C3.57747 76.029 4.03776 76.2568 4.68945 76.2568C5.24089 76.2568 5.66243 76.127 5.9541 75.8672C6.24577 75.6074 6.40072 75.195 6.41895 74.6299H8.80469ZM22.5682 73.2285C22.5682 74.1992 22.3882 75.0583 22.0281 75.8057C21.6681 76.5531 21.1554 77.1296 20.49 77.5352C19.8292 77.9362 19.075 78.1367 18.2273 78.1367C17.3797 78.1367 16.6277 77.943 15.9715 77.5557C15.3152 77.1637 14.8025 76.6055 14.4334 75.8809C14.0688 75.1562 13.8774 74.3245 13.8592 73.3857V72.8252C13.8592 71.8499 14.0369 70.9909 14.3924 70.248C14.7524 69.5007 15.2651 68.9242 15.9305 68.5186C16.6004 68.113 17.3615 67.9102 18.2137 67.9102C19.0568 67.9102 19.8087 68.1107 20.4695 68.5117C21.1303 68.9128 21.643 69.4847 22.0076 70.2275C22.3768 70.9658 22.5636 71.8135 22.5682 72.7705V73.2285ZM20.1277 72.8115C20.1277 71.8226 19.9614 71.0729 19.6287 70.5625C19.3006 70.0475 18.8289 69.79 18.2137 69.79C17.0105 69.79 16.3748 70.6924 16.3064 72.4971L16.2996 73.2285C16.2996 74.2038 16.4614 74.9535 16.785 75.4775C17.1085 76.0016 17.5893 76.2637 18.2273 76.2637C18.8335 76.2637 19.3006 76.0062 19.6287 75.4912C19.9568 74.9762 20.1232 74.2357 20.1277 73.2695V72.8115ZM35.8121 68.0469V74.5615C35.8121 75.2998 35.6549 75.9401 35.3404 76.4824C35.026 77.0202 34.5748 77.4303 33.9869 77.7129C33.399 77.9954 32.704 78.1367 31.902 78.1367C30.6897 78.1367 29.735 77.8223 29.0377 77.1934C28.3404 76.5645 27.985 75.7031 27.9713 74.6094V68.0469H30.3844V74.6572C30.4117 75.7464 30.9176 76.291 31.902 76.291C32.3987 76.291 32.7747 76.1543 33.0299 75.8809C33.2851 75.6074 33.4127 75.1631 33.4127 74.5479V68.0469H35.8121ZM49.8285 78H47.4428L43.9154 71.8066V78H41.516V68.0469H43.9154L47.4359 74.2402V68.0469H49.8285V78ZM60.6799 75.3545C60.6799 75.0036 60.5546 74.7301 60.3039 74.5342C60.0578 74.3382 59.6226 74.1354 58.9982 73.9258C58.3739 73.7161 57.8635 73.5133 57.467 73.3174C56.1773 72.6839 55.5324 71.8135 55.5324 70.7061C55.5324 70.1546 55.6919 69.6693 56.0109 69.25C56.3345 68.8262 56.7902 68.498 57.3781 68.2656C57.966 68.0286 58.6268 67.9102 59.3605 67.9102C60.076 67.9102 60.7163 68.0378 61.2814 68.293C61.8511 68.5482 62.2932 68.9128 62.6076 69.3867C62.9221 69.8561 63.0793 70.3939 63.0793 71H60.6867C60.6867 70.5944 60.5614 70.2799 60.3107 70.0566C60.0646 69.8333 59.7297 69.7217 59.3059 69.7217C58.8775 69.7217 58.538 69.8174 58.2873 70.0088C58.0412 70.1956 57.9182 70.4349 57.9182 70.7266C57.9182 70.9818 58.0549 71.2142 58.3283 71.4238C58.6018 71.6289 59.0826 71.8431 59.7707 72.0664C60.4589 72.2852 61.024 72.5221 61.466 72.7773C62.5415 73.3971 63.0793 74.2516 63.0793 75.3408C63.0793 76.2113 62.7512 76.8949 62.0949 77.3916C61.4387 77.8883 60.5386 78.1367 59.3947 78.1367C58.5881 78.1367 57.8566 77.9932 57.2004 77.7061C56.5487 77.4144 56.0565 77.0179 55.7238 76.5166C55.3957 76.0107 55.2316 75.4297 55.2316 74.7734H57.6379C57.6379 75.3066 57.7746 75.7008 58.048 75.9561C58.326 76.2067 58.7749 76.332 59.3947 76.332C59.7912 76.332 60.1034 76.2477 60.3312 76.0791C60.5637 75.9059 60.6799 75.6644 60.6799 75.3545ZM74.6826 73.7822H70.9092V76.1543H75.3662V78H68.5098V68.0469H75.3799V69.8994H70.9092V71.998H74.6826V73.7822ZM82.9432 76.1543H87.1199V78H80.5437V68.0469H82.9432V76.1543ZM94.7311 76.1543H98.9078V78H92.3316V68.0469H94.7311V76.1543ZM106.676 78H104.284V68.0469H106.676V78ZM120.857 78H118.471L114.944 71.8066V78H112.544V68.0469H114.944L118.464 74.2402V68.0469H120.857V78ZM134.723 76.7695C134.354 77.1797 133.813 77.5101 133.103 77.7607C132.392 78.0114 131.612 78.1367 130.765 78.1367C129.461 78.1367 128.42 77.738 127.641 76.9404C126.861 76.1429 126.444 75.0332 126.39 73.6113L126.383 72.75C126.383 71.7702 126.556 70.9157 126.902 70.1865C127.249 69.4528 127.743 68.89 128.386 68.498C129.033 68.1016 129.78 67.9033 130.628 67.9033C131.868 67.9033 132.829 68.1882 133.513 68.7578C134.201 69.3229 134.602 70.1683 134.716 71.2939H132.405C132.323 70.738 132.146 70.3415 131.872 70.1045C131.599 69.8675 131.211 69.749 130.71 69.749C130.108 69.749 129.644 70.0042 129.315 70.5146C128.987 71.0251 128.821 71.7542 128.816 72.7021V73.3037C128.816 74.2972 128.985 75.0446 129.322 75.5459C129.664 76.0426 130.2 76.291 130.929 76.291C131.553 76.291 132.018 76.152 132.323 75.874V74.3291H130.655V72.6816H134.723V76.7695ZM153.657 76.1406H150.369L149.795 78H147.231L150.881 68.0469H153.137L156.815 78H154.238L153.657 76.1406ZM150.943 74.2881H153.083L152.009 70.8359L150.943 74.2881ZM170.059 78H167.673L164.146 71.8066V78H161.746V68.0469H164.146L167.666 74.2402V68.0469H170.059V78ZM175.777 78V68.0469H178.983C179.862 68.0469 180.653 68.2474 181.355 68.6484C182.057 69.0449 182.603 69.6077 182.995 70.3369C183.392 71.0615 183.592 71.875 183.597 72.7773V73.2354C183.597 74.1468 183.403 74.9648 183.016 75.6895C182.633 76.4095 182.091 76.9746 181.389 77.3848C180.692 77.7904 179.912 77.9954 179.051 78H175.777ZM178.176 69.8994V76.1543H179.01C179.698 76.1543 180.227 75.9105 180.596 75.4229C180.965 74.9307 181.15 74.2015 181.15 73.2354V72.8047C181.15 71.8431 180.965 71.1185 180.596 70.6309C180.227 70.1432 179.689 69.8994 178.983 69.8994H178.176ZM204.117 69.8994H201.13V78H198.73V69.8994H195.798V68.0469H204.117V69.8994ZM217.655 78H215.269V73.8438H211.735V78H209.336V68.0469H211.735V71.998H215.269V68.0469H217.655V78ZM229.552 73.7822H225.779V76.1543H230.236V78H223.379V68.0469H230.249V69.8994H225.779V71.998H229.552V73.7822ZM239.112 74.4863H237.813V78H235.413V68.0469H239.33C240.511 68.0469 241.433 68.3089 242.099 68.833C242.764 69.3571 243.097 70.0977 243.097 71.0547C243.097 71.7474 242.956 72.3216 242.673 72.7773C242.395 73.2331 241.958 73.6022 241.361 73.8848L243.439 77.8975V78H240.868L239.112 74.4863ZM237.813 72.6338H239.33C239.786 72.6338 240.128 72.5153 240.356 72.2783C240.588 72.0368 240.704 71.7018 240.704 71.2734C240.704 70.8451 240.588 70.5101 240.356 70.2686C240.123 70.0225 239.781 69.8994 239.33 69.8994H237.813V72.6338ZM254.399 76.1406H251.111L250.537 78H247.974L251.624 68.0469H253.88L257.558 78H254.98L254.399 76.1406ZM251.686 74.2881H253.825L252.752 70.8359L251.686 74.2881ZM264.888 74.623V78H262.489V68.0469H266.461C267.222 68.0469 267.894 68.1882 268.477 68.4707C269.065 68.7487 269.519 69.1475 269.838 69.667C270.161 70.182 270.323 70.7676 270.323 71.4238C270.323 72.3945 269.974 73.1715 269.277 73.7549C268.584 74.3337 267.632 74.623 266.42 74.623H264.888ZM264.888 72.7705H266.461C266.926 72.7705 267.279 72.6543 267.52 72.4219C267.766 72.1895 267.889 71.8613 267.889 71.4375C267.889 70.9727 267.764 70.6012 267.513 70.3232C267.263 70.0452 266.921 69.904 266.488 69.8994H264.888V72.7705ZM279.452 72.3672L281.284 68.0469H283.875L280.669 74.4248V78H278.235V74.4248L275.036 68.0469H277.613L279.452 72.3672Z" fill="black"/>
</g>
<defs>
<clipPath id="clip0_112:14">
<rect width="284" height="78" fill="white"/>
</clipPath>
</defs>
</svg>
